HIERARCHY
ROOT Hips
{
	OFFSET 0.000000 0.000000 0.000000
	CHANNELS 6 Xposition Yposition Zposition Zrotation Yrotation Xrotation 
	JOINT LHipJoint
	{
		OFFSET 0.000000 0.000000 0.000000
		CHANNELS 3 Zrotation Yrotation Xrotation
		JOINT LeftUpLeg
		{
			OFFSET 1.363060 -1.794630 0.839290
			CHANNELS 3 Zrotation Yrotation Xrotation
			JOINT LeftLeg
			{
				OFFSET 2.448110 -6.726130 0.000000
				CHANNELS 3 Zrotation Yrotation Xrotation
				JOINT LeftFoot
				{
					OFFSET 2.562200 -7.039590 0.000000
					CHANNELS 3 Zrotation Yrotation Xrotation
					JOINT LeftToeBase
					{
						OFFSET 0.157640 -0.433110 2.322550
						CHANNELS 3 Zrotation Yrotation Xrotation
						End Site
						{
							OFFSET 0.000000 0.000000 0.000000
						}
					}
				}
			}
		}
	}
	JOINT RHipJoint
	{
		OFFSET 0.000000 0.000000 0.000000
		CHANNELS 3 Zrotation Yrotation Xrotation
		JOINT RightUpLeg
		{
			OFFSET -1.305520 -1.794630 0.839290
			CHANNELS 3 Zrotation Yrotation Xrotation
			JOINT RightLeg
			{
				OFFSET -2.542530 -6.985550 0.000000
				CHANNELS 3 Zrotation Yrotation Xrotation
				JOINT RightFoot
				{
					OFFSET -2.568260 -7.056230 0.000000
					CHANNELS 3 Zrotation Yrotation Xrotation
					JOINT RightToeBase
					{
						OFFSET -0.164730 -0.452590 2.363150
						CHANNELS 3 Zrotation Yrotation Xrotation
						End Site
						{
							OFFSET 0.000000 0.000000 0.000000
						}
					}
				}
			}
		}
	}
}
MOTION
Frames: 24
Frame Time: 0.008333
12.443165 12.873471 2.899669 111.837232 -88.522439 -23.697120 -9.087584 -0.522605 3.511437 -2.952191 -18.022263 -135.870776 -0.952153 9.549239 76.545802 3.941260 4.964355 -30.565493 -2.633500 0.000000 -39.021400 10.092297 1.097216 4.682574 1.907416 10.791557 -137.825689 0.843538 -11.393636 77.938052 -2.383128 0.026549 -27.352187 1.062700 0.000000 -56.500400
12.413806 12.859209 2.900210 111.878814 -88.518196 -23.587552 -9.099994 -0.510801 3.519892 -2.972207 -18.048503 -135.978258 -0.943184 9.578848 76.702306 3.956660 4.945293 -30.733037 -2.660000 0.000001 -39.083300 10.105657 1.096688 4.700440 1.888098 10.790653 -137.940268 0.826653 -11.415077 78.092864 -2.404244 0.024350 -27.526665 1.081000 0.000000 -56.536700
12.383824 12.844280 2.900702 111.912025 -88.513553 -23.467557 -9.112960 -0.498452 3.528403 -2.994660 -18.074080 -136.092330 -0.933583 9.611279 76.869994 3.969028 4.913856 -30.901857 -2.683800 0.000000 -39.159000 10.119604 1.096858 4.719603 1.865465 10.787322 -138.062850 0.808469 -11.438196 78.258692 -2.424132 0.030127 -27.708869 1.098700 -0.000000 -56.555900
12.353072 12.828637 2.901142 111.928698 -88.508243 -23.327128 -9.126708 -0.485248 3.537390 -3.018787 -18.099901 -136.214464 -0.923403 9.646561 77.048372 3.977915 4.868929 -31.069676 -2.704300 0.000000 -39.255500 10.134420 1.097863 4.740147 1.840055 10.780625 -138.192162 0.788928 -11.462914 78.434848 -2.442158 0.044588 -27.895048 1.115099 0.000000 -56.563701
12.321532 12.812392 2.901576 111.923276 -88.502223 -23.161723 -9.141078 -0.471189 3.547022 -3.044895 -18.125994 -136.341093 -0.912577 9.683901 77.235595 3.983560 4.812155 -31.235135 -2.721401 -0.000000 -39.378500 10.150200 1.099806 4.762106 1.812379 10.769757 -138.326972 0.767867 -11.489104 78.620235 -2.458235 0.066271 -28.081443 1.130200 0.000000 -56.569600
12.289182 12.795672 2.901979 111.892444 -88.495568 -22.970285 -9.155816 -0.456253 3.557386 -3.072387 -18.153123 -136.471567 -0.900972 9.722846 77.430311 3.986735 4.746561 -31.398075 -2.735700 0.000000 -39.529100 10.166810 1.102353 4.785428 1.782805 10.755935 -138.468542 0.745197 -11.516851 78.813905 -2.472637 0.092974 -28.265267 1.144000 0.000000 -56.582800
12.255834 12.778493 2.902384 111.824470 -88.489208 -22.740619 -9.170823 -0.440638 3.568656 -3.100555 -18.180323 -136.602827 -0.888356 9.762406 77.630664 3.988920 4.677490 -31.559913 -2.748700 0.000000 -39.705200 10.183960 1.105578 4.809546 1.754187 10.739832 -138.609401 0.721061 -11.545130 79.013201 -2.486340 0.120619 -28.445993 1.157200 0.000000 -56.610500
12.221447 12.760836 2.902774 111.738093 -88.482468 -22.490594 -9.186227 -0.424013 3.582247 -3.127595 -18.209736 -136.734374 -0.874645 9.801607 77.833436 3.992355 4.612633 -31.721891 -2.762500 -0.000000 -39.905200 10.201918 1.108703 4.835898 1.724516 10.722512 -138.751432 0.695413 -11.573483 79.215836 -2.500803 0.143880 -28.623281 1.170799 0.000000 -56.665400
12.186448 12.743964 2.903370 111.605874 -88.482880 -22.213251 -9.198010 -0.412619 3.589154 -3.157799 -18.226604 -136.837996 -0.858057 9.836419 78.039599 3.998443 4.559329 -31.893113 -2.780200 0.000001 -40.102700 10.215639 1.114400 4.853492 1.710601 10.707250 -138.857880 0.669264 -11.598348 79.414564 -2.517073 0.157390 -28.799222 1.186100 0.000000 -56.781200
12.149293 12.724899 2.903437 111.453692 -88.475267 -21.887209 -9.215839 -0.391277 3.614647 -3.173653 -18.263976 -136.979721 -0.841708 9.874093 78.243002 4.010708 4.521902 -32.062971 -2.801700 -0.000000 -40.334100 10.236295 1.114904 4.890739 1.673757 10.694297 -139.008343 0.640519 -11.626047 79.624290 -2.538569 0.159883 -28.985877 1.204900 0.000001 -56.842300
12.111360 12.706661 2.903664 111.265345 -88.475359 -21.543394 -9.229914 -0.375697 3.635551 -3.186861 -18.288022 -137.090861 -0.821758 9.905161 78.446127 4.029654 4.509555 -32.247592 -2.831700 -0.000000 -40.550200 10.252392 1.117457 4.921226 1.648346 10.685896 -139.121172 0.611485 -11.648495 79.826389 -2.565565 0.143266 -29.180527 1.228200 0.000000 -56.964200
12.072133 12.688513 2.903770 111.026888 -88.479637 -21.156719 -9.242660 -0.362210 3.658693 -3.191587 -18.305722 -137.188373 -0.798624 9.931390 78.649172 4.056299 4.523397 -32.446244 -2.870600 -0.000000 -40.751700 10.266258 1.120701 4.952295 1.624034 10.682003 -139.211966 0.581422 -11.666535 80.026664 -2.599700 0.107444 -29.393835 1.257601 0.000000 -57.088200
12.031604 12.670511 2.903723 110.743423 -88.487414 -20.732749 -9.254094 -0.351044 3.685449 -3.183259 -18.317187 -137.274507 -0.771900 9.952266 78.851823 4.091131 4.565344 -32.659049 -2.919100 -0.000000 -40.939900 10.277942 1.124815 4.985740 1.594937 10.681692 -139.283258 0.550067 -11.679498 80.224457 -2.642076 0.049965 -29.629506 1.294000 0.000000 -57.210800
11.989693 12.652778 2.903515 110.394264 -88.499514 -20.251640 -9.263960 -0.343161 3.715723 -3.159819 -18.319399 -137.345478 -0.741063 9.966817 79.054799 4.133401 4.633948 -32.885176 -2.976800 -0.000000 -41.113600 10.286956 1.130930 5.021684 1.558036 10.683675 -139.331013 0.517089 -11.686311 80.420039 -2.692987 -0.029262 -29.890914 1.338000 -0.000001 -57.319700
11.946429 12.635670 2.903004 109.992022 -88.512968 -19.731952 -9.271263 -0.339671 3.747824 -3.122724 -18.312071 -137.395092 -0.705886 9.974400 79.259477 4.181604 4.725106 -33.123755 -3.042800 0.000000 -41.271300 10.292411 1.141080 5.059073 1.509414 10.682160 -139.350723 0.481452 -11.685997 80.615948 -2.751890 -0.128620 -30.180206 1.389600 -0.000000 -57.397400
11.901754 12.619300 2.902264 109.505065 -88.529059 -19.141905 -9.276078 -0.341101 3.782260 -3.068531 -18.292979 -137.423228 -0.665886 9.974473 79.466664 4.233950 4.834767 -33.369995 -3.115400 0.000000 -41.424400 10.294269 1.156209 5.098881 1.444150 10.676237 -139.343003 0.442472 -11.677926 80.812252 -2.818387 -0.248674 -30.494104 1.449000 -0.000001 -57.445001
11.855953 12.604022 2.900915 109.039807 -88.542115 -18.593581 -9.277003 -0.349069 3.814999 -3.003009 -18.262976 -137.422933 -0.621193 9.967209 79.677702 4.288294 4.958264 -33.619637 -3.192600 0.000001 -41.580599 10.291450 1.179239 5.139147 1.353767 10.657780 -139.302621 0.397758 -11.660011 81.011858 -2.891700 -0.391585 -30.827577 1.516100 -0.000000 -57.459800
11.796277 12.574363 2.898738 108.801963 -88.529606 -18.127716 -9.321486 -0.304769 3.979226 -2.848863 -18.311946 -137.673035 -0.578775 9.993491 79.928882 4.353698 5.057979 -33.899377 -3.270900 0.000000 -41.754300 10.334914 1.144447 5.317048 1.168996 10.680424 -139.526992 0.350511 -11.666714 81.257865 -2.976245 -0.522497 -31.199263 1.588600 -0.000001 -57.455500
11.737898 12.548766 2.896474 108.337430 -88.524744 -17.490782 -9.352534 -0.279128 4.117651 -2.688108 -18.327528 -137.841501 -0.527773 10.002708 80.181341 4.417150 5.175623 -34.168588 -3.351900 0.000000 -41.950100 10.363312 1.131925 5.468763 0.974438 10.679307 -139.660398 0.294678 -11.657561 81.502537 -3.065791 -0.687588 -31.571055 1.669201 0.000000 -57.432400
11.680365 12.527277 2.894156 107.650751 -88.527438 -16.688659 -9.370734 -0.271041 4.232322 -2.521924 -18.311554 -137.928730 -0.468552 9.994860 80.433966 4.478584 5.311767 -34.425739 -3.435800 0.000000 -42.175500 10.377032 1.140869 5.596447 0.769606 10.656309 -139.703435 0.229713 -11.632156 81.745177 -3.160364 -0.891345 -31.935844 1.758800 0.000001 -57.407901
11.623206 12.509972 2.891654 106.748587 -88.535776 -15.729959 -9.376494 -0.278761 4.324933 -2.355102 -18.268461 -137.929233 -0.401850 9.969302 80.683831 4.539073 5.470252 -34.671695 -3.524000 0.000000 -42.430900 10.376477 1.170624 5.701667 0.556782 10.612253 -139.652066 0.155444 -11.589947 81.984631 -3.260201 -1.138180 -32.288708 1.858400 0.000000 -57.394600
11.565956 12.496747 2.889016 105.635736 -88.552900 -14.619711 -9.371292 -0.300768 4.399045 -2.187364 -18.197776 -137.845281 -0.328038 9.926422 80.928561 4.600410 5.657339 -34.907498 -3.618800 -0.000000 -42.721300 10.362030 1.218363 5.787662 0.337901 10.556218 -139.505895 0.072457 -11.530355 82.216749 -3.367150 -1.436561 -32.625998 1.970100 0.000000 -57.415300
11.508229 12.487711 2.886234 104.278239 -88.580969 -13.328235 -9.355758 -0.335367 4.456129 -2.023447 -18.099516 -137.668254 -0.247608 9.865372 81.165087 4.664707 5.880354 -35.136994 -3.723300 -0.000000 -43.037900 10.333416 1.282843 5.854969 0.120181 10.495058 -139.257438 -0.018168 -11.453128 82.439036 -3.482654 -1.791371 -32.949650 2.096200 0.000000 -57.473400
11.449389 12.482573 2.883087 102.732340 -88.614064 -11.909821 -9.331230 -0.379230 4.499450 -1.870076 -17.983887 -137.394754 -0.162213 9.786438 81.388392 4.735019 6.147263 -35.365319 -3.841599 -0.000000 -43.368799 10.292192 1.361884 5.907000 -0.094615 10.428671 -138.906189 -0.115308 -11.358401 82.649148 -3.608040 -2.205143 -33.264340 2.238701 0.000000 -57.568600
